<?xml version="1.0" encoding="UTF-8" standalone="no"?>
<!DOCTYPE svg PUBLIC "-//W3C//DTD SVG 20010904//EN"
"http://www.w3.org/TR/2001/REC-SVG-20010904/DTD/svg10.dtd">
<!-- Created with Inkscape (http://www.inkscape.org/) -->
<svg
   version="1.0"
   x="0"
   y="0"
   width="48pt"
   height="48pt"
   id="svg611"
   sodipodi:version="0.32"
   inkscape:version="0.38.1"
   sodipodi:docname="larry.svg"
   sodipodi:docbase="/home/scaba/files/lila-artwork/devel"
   xmlns="http://www.w3.org/2000/svg"
   xmlns:inkscape="http://www.inkscape.org/namespaces/inkscape"
   xmlns:sodipodi="http://sodipodi.sourceforge.net/DTD/sodipodi-0.dtd"
   xmlns:xlink="http://www.w3.org/1999/xlink">
  <sodipodi:namedview
     id="base"
     pagecolor="#ffffff"
     bordercolor="#666666"
     borderopacity="1.0"
     inkscape:pageopacity="0.0"
     inkscape:pageshadow="2"
     inkscape:zoom="5.6568542"
     inkscape:cx="23.803488"
     inkscape:cy="27.503542"
     inkscape:window-width="498"
     inkscape:window-height="498"
     inkscape:window-x="301"
     inkscape:window-y="94"
     showguides="true"
     snaptoguides="true"
     showgrid="false"
     snaptogrid="false" />
  <defs
     id="defs613">
    <linearGradient
       id="linearGradient1535">
      <stop
         style="stop-color:#ffffff;stop-opacity:1;"
         offset="0"
         id="stop1537" />
      <stop
         style="stop-color:#ffffff;stop-opacity:0;"
         offset="1"
         id="stop1536" />
    </linearGradient>
    <linearGradient
       id="linearGradient1528">
      <stop
         style="stop-color:#d9cce6;stop-opacity:1.0000000;"
         offset="0.0000000"
         id="stop1530" />
      <stop
         style="stop-color:#73667f;stop-opacity:1.0000000;"
         offset="1.0000000"
         id="stop1529" />
    </linearGradient>
    <linearGradient
       id="linearGradient642">
      <stop
         style="stop-color:#ffffff;stop-opacity:1;"
         offset="0"
         id="stop643" />
      <stop
         style="stop-color:#ffffff;stop-opacity:0;"
         offset="1"
         id="stop644" />
    </linearGradient>
    <linearGradient
       id="linearGradient635">
      <stop
         style="stop-color:#ffffff;stop-opacity:1.0000000;"
         offset="0.0000000"
         id="stop636" />
      <stop
         style="stop-color:#d9cce6;stop-opacity:1.0000000;"
         offset="1.0000000"
         id="stop637" />
    </linearGradient>
    <linearGradient
       id="linearGradient638"
       xlink:href="#linearGradient635"
       x1="6.5680968e-16"
       y1="0.50000000"
       x2="1.0000000"
       y2="0.50000000" />
    <linearGradient
       id="linearGradient641"
       xlink:href="#linearGradient1535"
       x1="-6.5052130e-18"
       y1="0.50000000"
       x2="1.0000000"
       y2="0.50000000" />
    <linearGradient
       id="linearGradient1522"
       xlink:href="#linearGradient635"
       x1="3.3989738e-17"
       y1="0.50000000"
       x2="1.0000000"
       y2="0.50000000" />
    <linearGradient
       id="linearGradient1527"
       xlink:href="#linearGradient635"
       x1="0.0034014429"
       y1="0.042553201"
       x2="0.98639452"
       y2="0.95744646" />
    <linearGradient
       id="linearGradient1532"
       xlink:href="#linearGradient635"
       x1="0.010615340"
       y1="0.033530705"
       x2="1.0544963"
       y2="0.95004517"
       gradientTransform="scale(0.961222,1.040342)" />
    <linearGradient
       id="linearGradient1534"
       xlink:href="#linearGradient635"
       x1="0.020918185"
       y1="0.044817142"
       x2="0.34863889"
       y2="2.7786629"
       gradientTransform="scale(2.868297,0.348639)" />
    <linearGradient
       id="linearGradient1539"
       xlink:href="#linearGradient635"
       x1="0.024142403"
       y1="-8.7577068e-10"
       x2="0.38024315"
       y2="2.4907429"
       gradientTransform="scale(2.510355,0.398350)" />
    <linearGradient
       id="linearGradient1567"
       xlink:href="#linearGradient635"
       x1="0.0040558549"
       y1="-5.9399252e-07"
       x2="1.1843110"
       y2="0.81321537"
       gradientTransform="scale(0.838629,1.192423)" />
    <linearGradient
       xlink:href="#linearGradient635"
       id="linearGradient896"
       x1="0.0099245850"
       y1="0.031473983"
       x2="0.95937836"
       y2="0.97570312"
       gradientTransform="scale(1.028160,0.972611)" />
    <linearGradient
       xlink:href="#linearGradient1528"
       id="linearGradient899"
       x1="0.041376498"
       y1="0.0078670830"
       x2="0.95856202"
       y2="0.99913907"
       gradientTransform="scale(1.007006,0.993043)" />
    <linearGradient
       xlink:href="#linearGradient1535"
       id="linearGradient901" />
    <linearGradient
       xlink:href="#linearGradient1535"
       id="linearGradient905"
       x1="0.0048523550"
       y1="-0.097928792"
       x2="0.99029034"
       y2="1.0497539" />
    <linearGradient
       xlink:href="#linearGradient1535"
       id="linearGradient939"
       x1="0.0041322312"
       y1="0.023437500"
       x2="0.98347110"
       y2="0.97656250" />
    <linearGradient
       xlink:href="#linearGradient1535"
       id="linearGradient948" />
    <radialGradient
       xlink:href="#linearGradient1535"
       id="radialGradient921"
       cx="0.50000000"
       cy="0.50000000"
       r="0.50000000"
       fx="0.50000000"
       fy="0.50000000" />
    <linearGradient
       xlink:href="#linearGradient1535"
       id="linearGradient1136" />
    <linearGradient
       xlink:href="#linearGradient1535"
       id="linearGradient1138" />
    <linearGradient
       xlink:href="#linearGradient1535"
       id="linearGradient1140" />
    <linearGradient
       xlink:href="#linearGradient1535"
       id="linearGradient1142" />
    <linearGradient
       xlink:href="#linearGradient1535"
       id="linearGradient1144" />
    <linearGradient
       xlink:href="#linearGradient1535"
       id="linearGradient1146" />
    <linearGradient
       xlink:href="#linearGradient1535"
       id="linearGradient1148" />
    <linearGradient
       xlink:href="#linearGradient1535"
       id="linearGradient1150" />
    <linearGradient
       xlink:href="#linearGradient1535"
       id="linearGradient1152" />
    <linearGradient
       xlink:href="#linearGradient1535"
       id="linearGradient1154" />
    <linearGradient
       xlink:href="#linearGradient1535"
       id="linearGradient1156" />
    <linearGradient
       xlink:href="#linearGradient1535"
       id="linearGradient1158" />
    <linearGradient
       xlink:href="#linearGradient1535"
       id="linearGradient1160" />
    <linearGradient
       xlink:href="#linearGradient1535"
       id="linearGradient1162" />
    <linearGradient
       xlink:href="#linearGradient1535"
       id="linearGradient1165" />
    <linearGradient
       xlink:href="#linearGradient1528"
       id="linearGradient1167"
       x1="-8.7603536e-16"
       y1="0.50000000"
       x2="1.0000000"
       y2="0.50000000" />
    <linearGradient
       xlink:href="#linearGradient1528"
       id="linearGradient1169"
       x1="1.9428903e-16"
       y1="0.50000000"
       x2="1.0000000"
       y2="0.50000000" />
    <linearGradient
       xlink:href="#linearGradient1528"
       id="linearGradient1171"
       x1="2.9004577e-15"
       y1="0.50000000"
       x2="1.0000000"
       y2="0.50000000" />
    <linearGradient
       xlink:href="#linearGradient1528"
       id="linearGradient1173"
       x1="7.4593109e-16"
       y1="0.50000000"
       x2="1.0000000"
       y2="0.50000000" />
    <linearGradient
       xlink:href="#linearGradient1528"
       id="linearGradient1175"
       x1="1.2507356e-15"
       y1="0.50000000"
       x2="1.0000000"
       y2="0.50000000" />
    <linearGradient
       xlink:href="#linearGradient1528"
       id="linearGradient1177"
       x1="1.4398205e-16"
       y1="0.50000000"
       x2="1.0000000"
       y2="0.50000000" />
    <linearGradient
       xlink:href="#linearGradient1528"
       id="linearGradient1179"
       x1="2.5396352e-15"
       y1="0.50000000"
       x2="1.0000000"
       y2="0.50000000" />
    <linearGradient
       xlink:href="#linearGradient1528"
       id="linearGradient1181"
       x1="-9.5236319e-16"
       y1="0.50000000"
       x2="1.0000000"
       y2="0.50000000" />
    <linearGradient
       xlink:href="#linearGradient1528"
       id="linearGradient1183"
       x1="-1.5404344e-15"
       y1="0.50000000"
       x2="1.0000000"
       y2="0.50000000" />
    <linearGradient
       xlink:href="#linearGradient1528"
       id="linearGradient1185"
       x1="1.3166551e-15"
       y1="0.50000000"
       x2="1.0000000"
       y2="0.50000000" />
    <linearGradient
       xlink:href="#linearGradient1528"
       id="linearGradient1187"
       x1="-1.1518564e-15"
       y1="0.50000000"
       x2="1.0000000"
       y2="0.50000000" />
    <linearGradient
       xlink:href="#linearGradient1528"
       id="linearGradient1189"
       x1="2.3019781e-15"
       y1="0.50000000"
       x2="1.0000000"
       y2="0.50000000" />
    <linearGradient
       xlink:href="#linearGradient1528"
       id="linearGradient1191"
       x1="1.0633855e-15"
       y1="0.50000000"
       x2="1.0000000"
       y2="0.50000000" />
    <linearGradient
       xlink:href="#linearGradient1528"
       id="linearGradient1193"
       x1="-1.5959456e-15"
       y1="0.50000000"
       x2="1.0000000"
       y2="0.50000000" />
    <linearGradient
       xlink:href="#linearGradient1528"
       id="linearGradient1195"
       x1="-2.7183117e-15"
       y1="0.50000000"
       x2="1.0000000"
       y2="0.50000000" />
    <linearGradient
       xlink:href="#linearGradient1528"
       id="linearGradient1197"
       x1="-3.2153100e-15"
       y1="0.50000000"
       x2="1.0000000"
       y2="0.50000000" />
    <linearGradient
       xlink:href="#linearGradient1528"
       id="linearGradient1199"
       x1="2.6298408e-15"
       y1="0.50000000"
       x2="1.0000000"
       y2="0.50000000" />
    <linearGradient
       xlink:href="#linearGradient1528"
       id="linearGradient1201"
       x1="3.3252481e-16"
       y1="0.50000000"
       x2="1.0000000"
       y2="0.50000000" />
    <linearGradient
       xlink:href="#linearGradient1535"
       id="linearGradient1447" />
    <linearGradient
       xlink:href="#linearGradient1528"
       id="linearGradient1449"
       x1="1.5254725e-16"
       y1="0.50000000"
       x2="1.0000000"
       y2="0.50000000" />
    <linearGradient
       xlink:href="#linearGradient1535"
       id="linearGradient1451" />
    <linearGradient
       xlink:href="#linearGradient1528"
       id="linearGradient1454"
       x1="-2.1412993e-17"
       y1="0.50000000"
       x2="1.0000000"
       y2="0.50000000" />
    <linearGradient
       xlink:href="#linearGradient1535"
       id="linearGradient1456" />
    <linearGradient
       xlink:href="#linearGradient1528"
       id="linearGradient1458"
       x1="3.5778672e-18"
       y1="0.50000000"
       x2="1.0000000"
       y2="0.50000000" />
    <linearGradient
       xlink:href="#linearGradient1535"
       id="linearGradient1460" />
    <linearGradient
       xlink:href="#linearGradient1528"
       id="linearGradient1462"
       x1="-2.7430315e-17"
       y1="0.50000000"
       x2="1.0000000"
       y2="0.50000000" />
    <linearGradient
       xlink:href="#linearGradient1535"
       id="linearGradient1473" />
    <linearGradient
       xlink:href="#linearGradient1528"
       id="linearGradient1477"
       x1="-3.1528599e-16"
       y1="0.50000000"
       x2="1.0000000"
       y2="0.50000000" />
    <linearGradient
       xlink:href="#linearGradient1528"
       id="linearGradient1479"
       x1="4.2674198e-16"
       y1="0.50000000"
       x2="1.0000000"
       y2="0.50000000" />
    <linearGradient
       xlink:href="#linearGradient1535"
       id="linearGradient1481" />
    <linearGradient
       xlink:href="#linearGradient1535"
       id="linearGradient1483" />
    <linearGradient
       xlink:href="#linearGradient1528"
       id="linearGradient1485"
       x1="6.1105634e-16"
       y1="0.50000000"
       x2="1.0000000"
       y2="0.50000000" />
    <linearGradient
       xlink:href="#linearGradient1535"
       id="linearGradient1487" />
    <linearGradient
       xlink:href="#linearGradient1528"
       id="linearGradient1489"
       x1="-3.9464959e-17"
       y1="0.50000000"
       x2="1.0000000"
       y2="0.50000000" />
    <linearGradient
       xlink:href="#linearGradient1535"
       id="linearGradient1503" />
    <linearGradient
       xlink:href="#linearGradient1528"
       id="linearGradient1506"
       x1="4.2121254e-17"
       y1="0.50000000"
       x2="1.0000000"
       y2="0.50000000" />
    <linearGradient
       xlink:href="#linearGradient1535"
       id="linearGradient1509" />
    <linearGradient
       xlink:href="#linearGradient1528"
       id="linearGradient1511"
       x1="1.0737938e-15"
       y1="0.50000000"
       x2="1.0000000"
       y2="0.50000000" />
    <linearGradient
       xlink:href="#linearGradient1535"
       id="linearGradient1523"
       x1="-1.9434324e-17"
       y1="0.50000000"
       x2="1.0000000"
       y2="0.50000000" />
    <defs
       id="defs1215">
      <marker
         id="ArrowEnd"
         viewBox="0 0 10 10"
         refX="0"
         refY="5"
         markerUnits="strokeWidth"
         markerWidth="4"
         markerHeight="3"
         orient="auto">
        <path
           d="M 0 0 L 10 5 L 0 10 z"
           id="path1217" />
      </marker>
      <marker
         id="ArrowStart"
         viewBox="0 0 10 10"
         refX="10"
         refY="5"
         markerUnits="strokeWidth"
         markerWidth="4"
         markerHeight="3"
         orient="auto">
        <path
           d="M 10 0 L 0 5 L 10 10 z"
           id="path1219" />
      </marker>
    </defs>
  </defs>
  <path
     style="fill:#000000;stroke:#261933;stroke-width:0.0000000;fill-opacity:0.30000001;"
     d="M 4.7106983,22.843690 C 7.6318846,19.956735 7.1733586,20.085458 9.8330406,18.903380 C 11.162875,18.312416 11.659467,18.052135 12.971656,18.045274 C 14.283860,18.038263 16.137462,18.216059 17.439375,18.637879 C 20.043153,19.481518 18.908656,19.395901 20.386217,19.001973 C 21.863776,18.607898 21.653910,18.312416 21.752355,17.228782 C 21.850799,16.145209 21.949393,9.4467720 22.737395,7.9691683 C 23.525397,6.4915623 23.426954,6.0975313 24.411993,7.7721453 C 25.397033,9.4467570 25.791109,13.584046 26.382223,14.963130 C 26.973188,16.342231 27.170225,17.130278 27.465707,17.327286 C 27.761190,17.524309 27.564301,17.721317 29.041861,17.425805 C 30.519420,17.130278 32.095575,17.228782 33.376097,17.327286 C 34.656769,17.425805 35.247733,17.524309 35.838847,17.425805 C 36.429811,17.327286 36.528404,17.524309 36.922331,16.834751 C 37.316406,16.145209 38.399891,13.387022 38.498485,12.007936 C 38.596929,10.628835 38.301448,5.8020043 37.710483,4.7184303 C 37.119369,3.6348663 37.710483,3.1423274 38.991005,4.7184303 C 40.271527,6.2945543 41.436737,8.7572293 41.929257,10.037796 C 42.421777,11.318378 42.228189,11.063624 42.499902,12.935245 C 42.302865,14.806880 42.068650,16.306287 41.335891,17.260077 C 40.989682,18.103338 40.468565,18.965999 41.650643,18.903380 C 42.832721,18.509305 43.325241,17.721317 44.507319,16.933270 C 45.689397,16.145209 48.644666,14.569114 51.008822,14.273588 C 53.372979,13.978061 53.865499,14.175084 54.850538,14.569114 C 55.835579,14.963130 55.835579,14.470596 57.116251,15.455665 C 58.396773,16.440735 59.972925,17.524309 58.790849,19.001973 C 57.608771,20.479534 56.131209,20.184052 55.441652,20.972054 C 54.752094,21.760056 52.978902,22.351169 51.993863,22.548208 C 51.008822,22.745097 45.985028,22.942134 45.295471,22.745097 C 44.605912,22.548208 43.029759,21.267537 43.817762,23.139172 C 44.605912,25.010809 45.590952,29.542082 45.787991,31.315274 C 45.985028,33.088317 46.674586,38.900261 47.068513,41.461455 C 47.462588,44.022649 47.758071,46.288212 47.955108,48.947999 C 48.152147,51.607637 47.462588,51.903120 47.265551,53.085197 C 47.068513,53.770090 47.167106,53.774755 45.787991,54.759795 C 44.408875,55.744836 44.267174,55.025446 42.494132,55.616410 C 40.720941,56.207523 40.468565,56.040466 38.793968,56.926914 C 37.119369,57.813509 33.868617,59.192625 32.588095,58.108991 C 31.307424,57.025507 29.534381,54.562757 27.564301,52.888159 C 25.594071,51.213562 22.934434,47.371845 22.343319,41.067379 C 21.752355,34.762914 20.270470,28.133135 19.396850,26.060135 C 18.523231,23.987137 19.250825,23.704631 16.827005,25.109253 C 14.403201,26.514023 12.591228,26.586961 10.818111,26.586961 C 9.0449786,26.586961 6.2867916,25.404883 4.8092023,24.616733 C 3.3315993,23.828730 3.5286113,24.025768 4.7106983,22.843690 z "
     id="path4368"
     sodipodi:nodetypes="ccccccccccccccccccccccccccccccccccccccccccccc" />
  <path
     style="fill:#261933;stroke:#261933;stroke-width:0.0000000;"
     d="M 2.4785706,21.314150 C 5.3997572,18.427195 4.9412304,18.555918 7.6009132,17.373840 C 8.9307470,16.782876 9.4273392,16.522595 10.739528,16.515734 C 12.051732,16.508723 13.905334,16.686519 15.207247,17.108339 C 17.811025,17.951978 16.676528,17.866361 18.154089,17.472433 C 19.631648,17.078358 19.421782,16.782876 19.520227,15.699242 C 19.618671,14.615669 19.717265,7.9172318 20.505267,6.4396275 C 21.293269,4.9620222 21.194826,4.5679910 22.179865,6.2426046 C 23.164905,7.9172172 23.558981,12.054506 24.150095,13.433590 C 24.741060,14.812691 24.938097,15.600738 25.233579,15.797746 C 25.529062,15.994769 25.332173,16.191777 26.809733,15.896265 C 28.287292,15.600738 29.863447,15.699242 31.143969,15.797746 C 32.424641,15.896265 33.015605,15.994769 33.606719,15.896265 C 34.197683,15.797746 34.296276,15.994769 34.690203,15.305211 C 35.084278,14.615669 36.167763,11.857482 36.266357,10.478396 C 36.364801,9.0992954 36.069320,4.2724639 35.478355,3.1888899 C 34.887241,2.1053255 35.478355,1.6127872 36.758877,3.1888899 C 38.039399,4.7650139 39.204609,7.2276890 39.697129,8.5082558 C 40.189649,9.7888382 39.996061,9.5340840 40.267774,11.405705 C 40.070737,13.277340 39.836522,14.776747 39.103763,15.730537 C 38.757554,16.573798 38.236437,17.436459 39.418515,17.373840 C 40.600593,16.979765 41.093113,16.191777 42.275191,15.403730 C 43.457269,14.615669 46.412538,13.039574 48.776694,12.744048 C 51.140851,12.448521 51.633371,12.645544 52.618410,13.039574 C 53.603451,13.433590 53.603451,12.941056 54.884123,13.926125 C 56.164645,14.911195 57.740797,15.994769 56.558721,17.472433 C 55.376643,18.949994 53.899081,18.654512 53.209524,19.442514 C 52.519966,20.230516 50.746774,20.821629 49.761735,21.018668 C 48.776694,21.215557 43.752900,21.412594 43.063343,21.215557 C 42.373784,21.018668 40.797631,19.737997 41.585634,21.609632 C 42.373784,23.481269 43.358824,28.012542 43.555863,29.785734 C 43.752900,31.558777 44.442458,37.370721 44.836385,39.931915 C 45.230460,42.493109 45.525943,44.758672 45.722980,47.418459 C 45.920019,50.078097 45.230460,50.373580 45.033423,51.555657 C 44.836385,52.240550 44.934978,52.245215 43.555863,53.230255 C 42.176747,54.215296 42.035046,53.495906 40.262004,54.086870 C 38.488813,54.677983 38.236437,54.510926 36.561840,55.397374 C 34.887241,56.283969 31.636489,57.663085 30.355967,56.579451 C 29.075296,55.495967 27.302253,53.033217 25.332173,51.358619 C 23.361943,49.684022 20.702306,45.842305 20.111191,39.537839 C 19.520227,33.233374 18.038342,26.603595 17.164722,24.530595 C 16.291103,22.457597 17.018697,22.175091 14.594877,23.579713 C 12.171073,24.984483 10.359100,25.057421 8.5859832,25.057421 C 6.8128511,25.057421 4.0546643,23.875343 2.5770746,23.087193 C 1.0994716,22.299190 1.2964836,22.496228 2.4785706,21.314150 z "
     id="path1221"
     sodipodi:nodetypes="ccccccccccccccccccccccccccccccccccccccccccccc" />
  <path
     style="fill:url(#linearGradient1532);stroke:#261933;stroke-width:0.0000000;"
     d="M 44.761526,15.526345 C 46.250344,15.148311 46.561941,15.113941 47.185131,14.804642 C 47.808322,14.495343 48.293044,14.529711 49.678048,14.564079 C 51.063053,14.598449 51.616933,14.770274 52.240124,15.045220 C 52.863466,15.320150 53.140407,15.388872 52.240124,15.526345 C 51.339993,15.663817 49.089511,15.870011 47.669853,15.973101 C 46.250344,16.076205 45.073122,16.213709 44.380620,16.557390 C 43.688117,16.901071 43.099582,16.935322 43.480487,16.557390 C 43.861243,16.179310 44.207494,15.698185 44.761526,15.526345 z "
     id="path1224"
     sodipodi:nodetypes="ccccccccc" />
  <path
     style="fill:url(#linearGradient1527);stroke:#261933;stroke-width:0.0000000;"
     d="M 47.458966,17.382197 C 49.294035,17.244603 50.367292,17.141560 51.232921,16.901071 C 52.098546,16.660434 51.925421,16.832275 52.825553,16.797879 C 53.725836,16.763479 53.829650,16.866674 53.691182,17.107161 C 53.552710,17.347798 52.894865,17.931967 52.237017,18.138207 C 51.579172,18.344447 51.094449,18.310048 50.263477,18.894216 C 49.432505,19.478537 48.151468,19.719024 46.731809,19.684626 C 45.312300,19.650377 44.308203,19.890865 43.581044,19.547183 C 42.854038,19.203501 42.611603,18.997413 43.200290,18.447491 C 43.788826,17.897571 44.239043,17.931967 45.312300,17.725879 C 46.385559,17.519639 46.870279,17.416446 47.458966,17.382197 z "
     id="path1225"
     sodipodi:nodetypes="ccccccccccc" />
  <path
     style="fill:url(#linearGradient1539);stroke:#261933;stroke-width:0.0000000;"
     d="M 20.736032,13.830826 C 20.772962,11.931359 20.995356,11.200789 21.217749,10.470220 C 21.440142,9.7396501 21.403050,9.8857720 21.699466,10.470220 C 21.995883,11.054669 22.403577,12.588869 22.551786,13.100257 C 22.699994,13.611661 23.107687,14.634455 23.292989,15.036270 C 23.478289,15.438068 23.700683,15.839931 22.996572,15.912896 C 22.292462,15.986019 21.995883,16.095546 21.514165,16.095546 C 21.032448,16.095546 20.624755,15.766808 20.661847,15.109330 C 20.698939,14.451805 20.698939,14.013476 20.736032,13.830826 z "
     id="path1226"
     sodipodi:nodetypes="ccccccccc" />
  <path
     style="fill:url(#linearGradient1534);stroke:#261933;stroke-width:0.0000000;"
     d="M 37.459144,11.412117 C 37.559057,10.526575 37.499613,9.7722168 37.499613,9.4442368 C 37.499613,9.1162710 37.504547,8.7157005 37.504547,8.4861188 C 37.504547,8.2565371 37.525752,7.8371360 37.525752,7.5091559 C 37.525752,7.1811901 37.302894,5.3610879 37.668952,6.4106269 C 38.035011,7.4601517 38.700316,8.8158688 38.822815,10.076022 C 39.055656,11.059948 38.737737,12.105753 38.737737,12.532117 C 38.737737,12.958495 38.490711,13.642364 38.191261,14.527906 C 37.891811,15.413462 37.804948,16.263251 37.305818,16.296050 C 36.806831,16.328849 36.394418,16.069422 35.928591,16.069422 C 35.462764,16.069422 35.496069,16.003823 35.828823,15.577445 C 36.161577,15.151066 37.226303,13.183215 37.459144,11.412117 z "
     id="path1227"
     sodipodi:nodetypes="cccccccccccc" />
  <path
     style="fill:url(#linearGradient1522);stroke:#261933;stroke-width:0.0000000;"
     d="M 22.084966,33.556261 C 21.731894,30.873040 21.661372,29.390231 21.096427,27.624873 C 20.531635,25.859669 18.978151,21.693639 18.483881,20.563748 C 17.989612,19.434011 18.272007,19.151615 19.472420,18.869066 C 20.672833,18.586670 25.191935,17.174383 27.875156,17.315735 C 30.558377,17.456933 32.535455,16.468394 35.359875,18.021725 C 38.184294,19.575209 39.102311,18.798544 39.808300,21.764161 C 40.514444,24.729778 41.361785,31.649705 41.785532,33.838657 C 42.209126,36.027609 43.127143,43.583003 43.409539,44.571542 C 43.691935,45.560081 43.974484,45.842477 42.067928,45.771955 C 40.161372,45.701279 37.690024,45.560081 34.724407,46.972368 C 31.758790,48.384501 29.287289,50.220381 28.581299,51.067722 C 27.875156,51.915063 27.875156,51.491469 26.957139,50.714650 C 26.039276,49.937985 24.203396,47.254764 23.779648,44.924614 C 23.356054,42.594464 22.367515,37.934165 22.296840,36.733752 C 22.226164,35.533339 22.084966,34.474124 22.084966,33.556261 z "
     id="path1228"
     sodipodi:nodetypes="cccccccccccccccc" />
  <path
     style="fill:#261933;stroke:#261933;stroke-width:0.0000000;"
     d="M 25.385484,29.639542 C 26.979950,28.987311 27.487258,28.914928 28.212030,29.567160 C 28.936802,30.219391 29.661573,31.324684 28.936802,32.049298 C 28.212030,32.774069 27.849644,32.755934 27.052490,33.335783 C 26.255178,33.915632 25.385484,33.625629 24.878175,33.335783 C 24.370866,33.045938 24.225944,32.611012 24.081021,31.958780 C 23.936098,31.306549 24.443407,30.291932 25.385484,29.639542 z "
     id="path1229"
     sodipodi:nodetypes="ccccccc" />
  <path
     style="fill:#261933;stroke:#261933;stroke-width:0.0000000;"
     d="M 35.728856,25.073775 C 37.029493,25.120068 37.470789,25.445328 37.470789,26.374412 C 37.470789,27.303295 36.402220,27.884074 35.751901,27.884074 C 35.101582,27.884074 34.404972,27.326543 34.218993,26.583436 C 34.033217,25.840128 34.311982,25.050527 35.728856,25.073775 z "
     id="path1230"
     sodipodi:nodetypes="ccccc" />
  <path
     style="fill:url(#linearGradient1534);stroke:none;stroke-width:0.62500000;fill-opacity:1.0000000;"
     d="M 14.139202,20.835913 C 14.742777,20.863369 14.697703,20.940553 14.697702,21.297281 C 14.697702,21.653891 14.769310,21.566558 14.357745,21.758652 C 13.946239,21.950747 11.738935,22.725891 10.861042,22.972785 C 9.9831498,23.219676 9.2233469,23.479544 8.8941471,23.507003 C 8.5649360,23.534342 7.7827156,23.345158 6.4658823,22.851372 C 5.7251673,22.659276 5.3807684,22.524000 5.7374025,22.414285 C 6.0940479,22.304567 6.1379707,22.245195 6.8786883,22.025762 C 7.6194033,21.806326 10.341096,21.267655 11.273848,21.103020 C 12.206611,20.938385 13.535649,20.808452 14.139202,20.835913 z "
     id="path1009" />
  <path
     style="fill:url(#linearGradient1532);stroke:none;stroke-width:0.62500000;fill-opacity:1.0000000;"
     d="M 9.8126320,18.990430 C 12.192522,19.092081 12.659756,19.405194 13.472245,19.709839 C 14.284749,20.014487 13.674620,20.093002 12.658998,19.991348 C 11.643375,19.889852 8.3105098,19.960070 7.4980037,19.960070 C 6.6855188,19.960070 6.6619605,19.732978 7.3728917,19.428331 C 8.0838196,19.123532 8.8985682,18.990430 9.8126320,18.990430 z "
     id="path1008" />
</svg>
